mastitorrents.com
  
http://mastitorrents.com/forums/index.php







----------------------------------------------------------------------------------------------------
----------------------------------------------------------------------------------------------------

LIKE US @ FACEBOOK


1. ---> http://urlgator.com/efyQx   [MastiTorrentsReleasers]

2. ---> http://urlgator.com/FG4tl   [MastiTorrents]


[OR]



Search for "MastiTorrentsReleasers" and "MastiTorrents" 



We are waiting for you!!!



----------------------------------------------------------------------------------------------------
----------------------------------------------------------------------------------------------------





****************************************************************************************************
****************************************************************************************************





8b    d8    db    .dP"Y8 888888 88 888888  dP"Yb  88""Yb 88""Yb 888888 88b 88 888888 .dP"Y8 
88b  d88   dPYb   `Ybo."   88   88   88   dP   Yb 88__dP 88__dP 88__   88Yb88   88   `Ybo." 
88YbdP88  dP__Yb  o.`Y8b   88   88   88   Yb   dP 88"Yb  88"Yb  88""   88 Y88   88   o.`Y8b 
88 YY 88 dP""""Yb 8bodP'   88   88   88    YbodP  88  Yb 88  Yb 888888 88  Y8   88   8bodP' 




****************************************************************************************************
****************************************************************************************************




====================================================================================================

                        MASTI TORRENTS RELEASERS [ MTR ]

                            Where Quality Matters!

====================================================================================================









description:


Movie Name : Doo
Year : 2011
Cast : Sanjay, Nakshathra, Manasa, Urvasi, Rajesh, Jegan, Jeeva play important character rolesMayil Samy…
Music Director : Abishek-Lawrence
Producer : R Gunasekaran, KN Aadhinarayanan
Director : Sriram Padmanabhan
Banner : AG Entertainment
Label : Think Music
Lyricis : Yugabharathi (1,5), G Kumar (2,3), Na Muthukumar (4)


Quote:


General
Complete name : D:\Doo (Tamil 2011) MSK DVDRip TDM -=MTR=- mastitorrents.mp4
Format : MPEG-4
Format profile : Base Media / Version 2
Codec ID : mp42
File size : 498 MiB
Duration : 2h 13mn
Overall bit rate : 522 Kbps
Encoded date : UTC 2011-08-26 17:48:27
Tagged date : UTC 2011-08-26 18:03:10
Writing application : HandBrake 0.9.5 2011010300

Video
ID : 1
Format : AVC
Format/Info : Advanced Video Codec
Format profile : High@L2.1
Format settings, CABAC : Yes
Format settings, ReFrames : 4 frames
Codec ID : avc1
Codec ID/Info : Advanced Video Coding
Duration : 2h 13mn
Bit rate mode : Variable
Bit rate : 360 Kbps
Width : 608 pixels
Height : 256 pixels
Display aspect ratio : 2.2:1
Frame rate mode : Constant
Frame rate : 25.000 fps
Color space : YUV
Chroma subsampling : 4:2:0
Bit depth : 8 bits
Scan type : Progressive
Bits/(Pixel*Frame) : 0.093
Stream size : 341 MiB (69%)
Writing library : x264 core 112
Encoding settings : cabac=1 / ref=3 / deblock=1:0:0 / analyse=0x3:0x113 / me=hex / subme=7 / psy=1 / psy_rd=1.00:0.00 / mixed_ref=1 / me_range=16 / chroma_me=1 / trellis=1 / 8x8dct=1 / cqm=0 / deadzone=21,11 / fast_pskip=1 / chroma_qp_offset=-2 / threads=12 / sliced_threads=0 / nr=0 / decimate=1 / interlaced=0 / constrained_intra=0 / bframes=3 / b_pyramid=2 / b_adapt=1 / b_bias=0 / direct=1 / weightb=1 / open_gop=0 / weightp=2 / keyint=250 / keyint_min=25 / scenecut=40 / intra_refresh=0 / rc_lookahead=40 / rc=abr / mbtree=1 / bitrate=360 / ratetol=1.0 / qcomp=0.60 / qpmin=3 / qpmax=51 / qpstep=4 / ip_ratio=1.40 / aq=1:1.00
Encoded date : UTC 2011-08-26 17:48:27
Tagged date : UTC 2011-08-26 18:03:10
Material_Duration : 8004040
Material_StreamSize : 357887627
Material_FrameCount : 200101
Color primaries : BT.601-6 525, BT.1358 525, BT.1700 NTSC, SMPTE 170M
Transfer characteristics : BT.709-5, BT.1361
Matrix coefficients : BT.601-6 525, BT.1358 525, BT.1700 NTSC, SMPTE 170M

Audio
ID : 2
Format : AAC
Format/Info : Advanced Audio Codec
Format profile : LC
Codec ID : 40
Duration : 2h 13mn
Bit rate mode : Variable
Bit rate : 160 Kbps
Maximum bit rate : 280 Kbps
Channel(s) : 2 channels
Channel positions : Front: L R
Sampling rate : 48.0 KHz
Compression mode : Lossy
Stream size : 153 MiB (31%)
Language : English
Encoded date : UTC 2011-08-26 17:48:27
Tagged date : UTC 2011-08-26 18:03:09
Material_Duration : 8004011
Material_StreamSize : 160063986




Credits : Dhloga@TTT 





Screens/Covers:


 
http://savesnap.com/images/dootamil20.jpg









****check out my other releases****

 
http://thepiratebay.org/user/tdkdemon/













    <<<<<<<SUPERFAST RELEASES BROUGHT TO YOU BY>>>>>>

          


                                  Masti Torrents Releasers [ MTR ]





            8888b.  888888 8b    d8  dP"Yb  88b 88     88888 8b    d8 888888 88""Yb 88888 
             8I  Yb 88__   88b  d88 dP   Yb 88Yb88     88    88b  d88   88   88__dP    88 
             8I  dY 88""   88YbdP88 Yb   dP 88 Y88     88    88YbdP88   88   88"Yb     88 
            8888Y"  888888 88 YY 88  YbodP  88  Y8     88888 88 YY 88   88   88  Yb 88888 
